<svg width="36" height="36" viewBox="0 0 36 36" fill="none" xmlns="http://www.w3.org/2000/svg">
<path d="M18 33.625C9.38114 33.625 2.375 26.6189 2.375 18C2.375 9.38114 9.38114 2.375 18 2.375C26.6189 2.375 33.625 9.38114 33.625 18C33.625 26.6189 26.6189 33.625 18 33.625ZM18 3.625C10.0739 3.625 3.625 10.0739 3.625 18C3.625 25.9261 10.0739 32.375 18 32.375C25.9261 32.375 32.375 25.9261 32.375 18C32.375 10.0739 25.9261 3.625 18 3.625Z" fill="#F5F5F5" stroke="#F5F5F5"/>
<path d="M11.9825 30.8749L12.6331 30.859L12.4502 30.2344C10.1221 22.2862 10.1221 13.7138 12.4502 5.76555L12.6331 5.14102L11.9825 5.12515C11.6406 5.11681 11.3754 4.84537 11.3754 4.5C11.3754 4.16114 11.6615 3.875 12.0004 3.875H13.5004C13.6956 3.875 13.8908 3.97432 14.0093 4.13182C14.1292 4.30627 14.1569 4.51218 14.0931 4.69574L14.0931 4.69572L14.0909 4.70214C11.2368 13.2797 11.2369 22.7204 14.0908 31.3126L14.0908 31.3126L14.0931 31.3193C14.1563 31.5009 14.1297 31.7044 14.013 31.8777C13.8929 32.0257 13.6954 32.125 13.5004 32.125H12.0004C11.6615 32.125 11.3754 31.8389 11.3754 31.5C11.3754 31.1546 11.6406 30.8832 11.9825 30.8749Z" fill="#F5F5F5" stroke="#F5F5F5"/>
<path d="M22.3152 32.0969L22.3065 32.0936L22.2977 32.0907C21.9685 31.981 21.7937 31.6196 21.9052 31.309L21.9053 31.309L21.909 31.2979C24.7632 22.7203 24.7631 13.2796 21.9091 4.68741L21.909 4.68691C21.7997 4.35927 21.9792 4.00163 22.296 3.89495C22.6401 3.78413 22.9843 3.96521 23.0903 4.28314L23.0904 4.28338C26.0411 13.1207 26.041 22.8494 23.0904 31.6714L23.0882 31.6782L23.0861 31.685C23.003 31.9594 22.7547 32.125 22.4996 32.125C22.4219 32.125 22.3646 32.1154 22.3152 32.0969Z" fill="#F5F5F5" stroke="#F5F5F5"/>
<path d="M5.76637 23.5506L5.14144 23.3664L5.12516 24.0177C5.11686 24.3494 4.8408 24.6252 4.5 24.6252C4.16114 24.6252 3.875 24.339 3.875 24.0002V22.5002C3.875 22.3049 3.97432 22.1097 4.13182 21.9913C4.30628 21.8714 4.51218 21.8436 4.69574 21.9074L4.69572 21.9075L4.70214 21.9096C13.2796 24.7637 22.7354 24.7637 31.3129 21.9096L31.3129 21.9097L31.3193 21.9074C31.5046 21.843 31.7127 21.8719 31.8883 21.9948C32.0447 22.1043 32.14 22.2908 32.14 22.5002V24.0002C32.14 24.339 31.8539 24.6252 31.515 24.6252C31.1696 24.6252 30.8982 24.3599 30.8899 24.018L30.874 23.3669L30.2491 23.5504C26.2609 24.7217 22.1384 25.3002 18 25.3002C13.8615 25.3002 9.73922 24.7217 5.76637 23.5506Z" fill="#F5F5F5" stroke="#F5F5F5"/>
<path d="M31.3152 14.0969L31.3064 14.0936L4.84468 14.565L4.69013 14.0895C4.68972 14.0897 4.6893 14.0898 4.68888 14.0899C4.34709 14.2003 4.00516 14.0227 3.89642 13.709C3.79558 13.3594 3.9821 13.0146 4.29779 12.9094L4.29803 12.9093C13.1353 9.95859 22.8641 9.95867 31.6861 12.9092L31.6866 12.9094C32.0158 13.0191 32.1906 13.3804 32.0791 13.6911L32.0738 13.7057L32.0695 13.7206C32.0026 13.951 31.7649 14.125 31.4997 14.125C31.422 14.125 31.3647 14.1154 31.3152 14.0969Z" fill="#F5F5F5" stroke="#F5F5F5"/>
</svg>
