<svg width="286" height="87" viewBox="0 0 286 87" fill="none" xmlns="http://www.w3.org/2000/svg">
<g clip-path="url(#clip0_1758_1466)">
<path d="M275.407 85.9696H10.5926C4.66074 85.9696 0 81.1863 0 75.0984V9.8712C0 3.78333 4.66074 -1 10.5926 -1H275.407C281.339 -1 286 3.78333 286 9.8712V75.0984C286 81.1863 281.339 85.9696 275.407 85.9696Z" fill="#1C1C1C"/>
<path d="M275.407 1.75575C280.28 1.75575 284.305 5.8868 284.305 10.8876V76.1147C284.305 81.1155 280.28 85.2466 275.407 85.2466H10.5926C5.72 85.2466 1.69481 81.1155 1.69481 76.1147V10.8876C1.69481 5.8868 5.72 1.75575 10.5926 1.75575H275.407ZM275.407 0.0163574H10.5926C4.66074 0.0163574 0 5.01711 0 10.8876V76.1147C0 82.2026 4.66074 86.9859 10.5926 86.9859H275.407C281.339 86.9859 286 82.2026 286 76.1147V10.8876C286 5.01711 281.339 0.0163574 275.407 0.0163574Z" fill="#A6A6A6"/>
<path d="M100.418 22.1924C100.418 23.9318 99.9944 25.4538 98.9352 26.5409C97.6641 27.8455 96.1811 28.4977 94.2744 28.4977C92.3678 28.4977 90.8848 27.8455 89.6137 26.5409C88.3426 25.2364 87.707 23.7144 87.707 21.7576C87.707 19.8008 88.3426 18.2788 89.6137 16.9743C90.8848 15.6697 92.3678 15.0175 94.2744 15.0175C95.1218 15.0175 95.9693 15.2349 96.8167 15.6697C97.6641 16.1046 98.2996 16.5394 98.7233 17.1917L97.6641 18.2788C96.8167 17.1917 95.7574 16.7568 94.2744 16.7568C93.0033 16.7568 91.7322 17.1917 90.8848 18.2788C89.8256 19.1485 89.4018 20.4531 89.4018 21.975C89.4018 23.497 89.8256 24.8015 90.8848 25.6712C91.9441 26.5409 93.0033 27.1932 94.2744 27.1932C95.7574 27.1932 96.8167 26.7583 97.8759 25.6712C98.5115 25.019 98.9352 24.1493 98.9352 23.0621H94.2744V21.3227H100.418V22.1924V22.1924ZM110.163 16.7568H104.443V20.8879H109.74V22.4099H104.443V26.5409H110.163V28.2803H102.749V15.2349H110.163V16.7568ZM117.154 28.2803H115.46V16.7568H111.858V15.2349H120.756V16.7568H117.154V28.2803ZM126.9 28.2803V15.2349H128.594V28.2803H126.9ZM135.797 28.2803H134.103V16.7568H130.501V15.2349H139.187V16.7568H135.586V28.2803H135.797ZM155.923 26.5409C154.652 27.8455 153.169 28.4977 151.263 28.4977C149.356 28.4977 147.873 27.8455 146.602 26.5409C145.331 25.2364 144.695 23.7144 144.695 21.7576C144.695 19.8008 145.331 18.2788 146.602 16.9743C147.873 15.6697 149.356 15.0175 151.263 15.0175C153.169 15.0175 154.652 15.6697 155.923 16.9743C157.194 18.2788 157.83 19.8008 157.83 21.7576C157.83 23.7144 157.194 25.2364 155.923 26.5409ZM147.873 25.4538C148.72 26.3235 149.991 26.9758 151.263 26.9758C152.534 26.9758 153.805 26.5409 154.652 25.4538C155.5 24.5841 156.135 23.2796 156.135 21.7576C156.135 20.2356 155.711 18.9311 154.652 18.0614C153.805 17.1917 152.534 16.5394 151.263 16.5394C149.991 16.5394 148.72 16.9743 147.873 18.0614C147.026 18.9311 146.39 20.2356 146.39 21.7576C146.39 23.2796 146.814 24.5841 147.873 25.4538ZM160.16 28.2803V15.2349H162.067L168.211 25.4538V15.2349H169.906V28.2803H168.211L161.643 17.6265V28.2803H160.16V28.2803Z" fill="#F5F5F5"/>
<path d="M144.271 47.4136C139.187 47.4136 135.162 51.3272 135.162 56.7628C135.162 61.981 139.187 66.112 144.271 66.112C149.356 66.112 153.381 62.1984 153.381 56.7628C153.381 51.1098 149.356 47.4136 144.271 47.4136ZM144.271 62.1984C141.517 62.1984 139.187 59.8067 139.187 56.5454C139.187 53.284 141.517 50.8923 144.271 50.8923C147.025 50.8923 149.356 53.0666 149.356 56.5454C149.356 59.8067 147.025 62.1984 144.271 62.1984ZM124.569 47.4136C119.485 47.4136 115.459 51.3272 115.459 56.7628C115.459 61.981 119.485 66.112 124.569 66.112C129.654 66.112 133.679 62.1984 133.679 56.7628C133.679 51.1098 129.654 47.4136 124.569 47.4136ZM124.569 62.1984C121.815 62.1984 119.485 59.8067 119.485 56.5454C119.485 53.284 121.815 50.8923 124.569 50.8923C127.323 50.8923 129.654 53.0666 129.654 56.5454C129.654 59.8067 127.323 62.1984 124.569 62.1984ZM101.054 50.2401V54.1537H110.163C109.951 56.3279 109.104 58.0673 108.045 59.1545C106.774 60.459 104.655 61.981 101.054 61.981C95.3335 61.981 91.0965 57.4151 91.0965 51.5446C91.0965 45.6742 95.5454 41.1083 101.054 41.1083C104.019 41.1083 106.35 42.4128 108.045 43.9348L110.799 41.1083C108.468 38.934 105.502 37.1946 101.265 37.1946C93.6387 37.1946 87.0713 43.7174 87.0713 51.5446C87.0713 59.3719 93.6387 65.8946 101.265 65.8946C105.502 65.8946 108.468 64.59 111.011 61.7635C113.553 59.1545 114.4 55.4582 114.4 52.6317C114.4 51.762 114.4 50.8923 114.188 50.2401H101.054V50.2401ZM197.234 53.284C196.387 51.1098 194.268 47.4136 189.608 47.4136C184.947 47.4136 181.134 51.1098 181.134 56.7628C181.134 61.981 184.947 66.112 190.031 66.112C194.057 66.112 196.599 63.5029 197.446 61.981L194.48 59.8067C193.421 61.3287 192.15 62.4158 190.031 62.4158C187.913 62.4158 186.642 61.5461 185.582 59.5893L197.658 54.3711L197.234 53.284V53.284ZM184.947 56.3279C184.947 52.8492 187.701 50.8923 189.608 50.8923C191.091 50.8923 192.574 51.762 192.997 52.8492L184.947 56.3279ZM174.99 65.2423H179.015V38.0643H174.99V65.2423ZM168.634 49.3704C167.575 48.2833 165.88 47.1961 163.762 47.1961C159.313 47.1961 155.076 51.3272 155.076 56.5454C155.076 61.7635 159.101 65.6772 163.762 65.6772C165.88 65.6772 167.575 64.5901 168.422 63.5029H168.634V64.8075C168.634 68.2863 166.728 70.2431 163.762 70.2431C161.431 70.2431 159.736 68.5037 159.313 66.9817L155.923 68.5037C156.982 70.8953 159.525 73.9393 163.974 73.9393C168.634 73.9393 172.448 71.1128 172.448 64.3726V47.8484H168.634V49.3704V49.3704ZM163.974 62.1984C161.219 62.1984 158.889 59.8067 158.889 56.5454C158.889 53.284 161.219 50.8923 163.974 50.8923C166.728 50.8923 168.846 53.284 168.846 56.5454C168.846 59.8067 166.728 62.1984 163.974 62.1984ZM215.665 38.0643H206.132V65.2423H210.157V55.0234H215.665C220.114 55.0234 224.351 51.762 224.351 46.5439C224.351 41.3257 220.114 38.0643 215.665 38.0643V38.0643ZM215.877 51.1098H210.157V41.7605H215.877C218.843 41.7605 220.538 44.3696 220.538 46.3264C220.326 48.7181 218.631 51.1098 215.877 51.1098ZM240.24 47.1961C237.274 47.1961 234.308 48.5007 233.249 51.3272L236.851 52.8492C237.698 51.3272 238.969 50.8923 240.452 50.8923C242.571 50.8923 244.477 52.1969 244.689 54.3711V54.5886C244.054 54.1537 242.359 53.5014 240.664 53.5014C236.851 53.5014 233.037 55.6757 233.037 59.5893C233.037 63.2855 236.215 65.6772 239.605 65.6772C242.359 65.6772 243.63 64.3726 244.689 63.0681H244.901V65.2423H248.714V54.806C248.291 50.0227 244.689 47.1961 240.24 47.1961V47.1961ZM239.817 62.1984C238.545 62.1984 236.639 61.5461 236.639 59.8067C236.639 57.6325 238.969 56.9802 240.876 56.9802C242.571 56.9802 243.418 57.4151 244.477 57.8499C244.054 60.459 241.935 62.1984 239.817 62.1984V62.1984ZM262.061 47.8484L257.612 59.5893H257.4L252.74 47.8484H248.502L255.494 64.3726L251.468 73.5044H255.494L266.298 47.8484H262.061V47.8484ZM226.47 65.2423H230.495V38.0643H226.47V65.2423Z" fill="#F5F5F5"/>
<path d="M22.032 16.3221C21.3964 16.9744 21.1846 18.0615 21.1846 19.366V67.4167C21.1846 68.7212 21.6083 69.8084 22.2438 70.4606L22.4557 70.678L48.7253 43.7175V43.2826L22.032 16.3221Z" fill="url(#paint0_linear_1758_1466)"/>
<path d="M57.1996 52.8493L48.5137 43.9349V43.2826L57.1996 34.3682L57.4115 34.5856L67.7922 40.6735C70.7581 42.4129 70.7581 45.2394 67.7922 46.9788L57.1996 52.8493V52.8493Z" fill="url(#paint1_linear_1758_1466)"/>
<path d="M57.4115 52.6318L48.5137 43.5L22.0322 70.678C23.0915 71.7651 24.5745 71.7651 26.4811 70.8954L57.4115 52.6318" fill="url(#paint2_linear_1758_1466)"/>
<path d="M57.4115 34.3685L26.4811 16.3223C24.5745 15.2352 23.0915 15.4526 22.0322 16.5397L48.5137 43.5003L57.4115 34.3685V34.3685Z" fill="url(#paint3_linear_1758_1466)"/>
<path opacity="0.2" d="M57.1996 52.4144L26.4811 70.2431C24.7863 71.3303 23.3033 71.1128 22.2441 70.2431L22.0322 70.4606L22.2441 70.678C23.3033 71.5477 24.7863 71.7651 26.4811 70.678L57.1996 52.4144Z" fill="#1C1C1C"/>
<path opacity="0.12" d="M22.032 70.2431C21.3964 69.5909 21.1846 68.5037 21.1846 67.1992V67.4166C21.1846 68.7212 21.6083 69.8083 22.2438 70.4606V70.2431H22.032ZM67.792 46.3265L57.1994 52.4144L57.4112 52.6318L67.792 46.5439C69.2749 45.6742 69.9105 44.5871 69.9105 43.5C69.9105 44.5871 69.0631 45.4568 67.792 46.3265V46.3265Z" fill="#1C1C1C"/>
<path opacity="0.25" d="M26.4809 16.5395L67.792 40.6736C69.0631 41.5433 69.9105 42.4129 69.9105 43.5001C69.9105 42.4129 69.2749 41.3258 67.792 40.4561L26.4809 16.3221C23.5149 14.5827 21.1846 15.8872 21.1846 19.366V19.5834C21.1846 16.3221 23.5149 14.8001 26.4809 16.5395Z" fill="#F5F5F5"/>
</g>
<defs>
<linearGradient id="paint0_linear_1758_1466" x1="46.1831" y1="18.9529" x2="9.70519" y2="54.4938" gradientUnits="userSpaceOnUse">
<stop stop-color="#00A0FF"/>
<stop offset="0.007" stop-color="#00A1FF"/>
<stop offset="0.26" stop-color="#00BEFF"/>
<stop offset="0.512" stop-color="#00D2FF"/>
<stop offset="0.76" stop-color="#00DFFF"/>
<stop offset="1" stop-color="#00E3FF"/>
</linearGradient>
<linearGradient id="paint1_linear_1758_1466" x1="71.6776" y1="43.5022" x2="20.4157" y2="43.5022" gradientUnits="userSpaceOnUse">
<stop stop-color="#FFE000"/>
<stop offset="0.409" stop-color="#FFBD00"/>
<stop offset="0.775" stop-color="#FFA500"/>
<stop offset="1" stop-color="#FF9C00"/>
</linearGradient>
<linearGradient id="paint2_linear_1758_1466" x1="52.5961" y1="48.4921" x2="3.13141" y2="96.6891" gradientUnits="userSpaceOnUse">
<stop stop-color="#FF3A44"/>
<stop offset="1" stop-color="#C31162"/>
</linearGradient>
<linearGradient id="paint3_linear_1758_1466" x1="15.4585" y1="0.398144" x2="37.5478" y2="21.9214" gradientUnits="userSpaceOnUse">
<stop stop-color="#32A071"/>
<stop offset="0.069" stop-color="#2DA771"/>
<stop offset="0.476" stop-color="#15CF74"/>
<stop offset="0.801" stop-color="#06E775"/>
<stop offset="1" stop-color="#00F076"/>
</linearGradient>
<clipPath id="clip0_1758_1466">
<rect width="286" height="87" fill="white"/>
</clipPath>
</defs>
</svg>
