<svg width="286" height="86" viewBox="0 0 286 86" fill="none" xmlns="http://www.w3.org/2000/svg">
<g clip-path="url(#clip0_1758_1454)">
<path d="M284.179 75.8408C284.179 76.9231 283.969 77.9948 283.56 78.9946C283.152 79.9944 282.553 80.9028 281.798 81.6677C281.043 82.4326 280.146 83.039 279.16 83.4524C278.174 83.8658 277.117 84.078 276.05 84.0769H10.0273C7.87112 84.0792 5.80238 83.2128 4.27598 81.6683C2.74957 80.1238 1.89051 78.0277 1.8877 75.8408V10.1608C1.8905 7.97296 2.74923 5.8757 4.27533 4.32949C5.80143 2.78328 7.87015 1.91451 10.0273 1.91394H276.048C277.116 1.91394 278.173 2.12727 279.159 2.54174C280.146 2.9562 281.042 3.56369 281.797 4.32951C282.552 5.09533 283.15 6.00447 283.559 7.00501C283.967 8.00555 284.177 9.07788 284.177 10.1608L284.179 75.8408Z" fill="#F5F5F5"/>
<path d="M276.049 85.9959H10.0266C7.37046 85.9954 4.82306 84.9262 2.94332 83.0229C1.06358 81.1196 0.00505383 78.5378 0 75.8438L0 10.166C0.00392932 7.47071 1.06176 4.88709 2.94144 2.98186C4.82111 1.07664 7.36914 0.00538768 10.0266 0.00311279L276.047 0.00311279C278.704 0.0065228 281.252 1.07814 283.131 2.98312C285.011 4.8881 286.069 7.47106 286.074 10.166V75.8438C286.078 81.4435 281.573 85.9959 276.049 85.9959V85.9959Z" fill="#A6A6A6"/>
<path d="M284.179 75.8408C284.179 76.9231 283.969 77.9948 283.56 78.9946C283.152 79.9944 282.553 80.9028 281.798 81.6677C281.043 82.4326 280.146 83.039 279.16 83.4524C278.174 83.8658 277.117 84.078 276.05 84.0769H10.0273C7.87112 84.0792 5.80238 83.2128 4.27598 81.6683C2.74957 80.1238 1.89051 78.0277 1.8877 75.8408V10.1608C1.8905 7.97296 2.74923 5.8757 4.27533 4.32949C5.80143 2.78328 7.87015 1.91451 10.0273 1.91394H276.048C277.116 1.91394 278.173 2.12727 279.159 2.54174C280.146 2.9562 281.042 3.56369 281.797 4.32951C282.552 5.09533 283.15 6.00447 283.559 7.00501C283.967 8.00555 284.177 9.07788 284.177 10.1608L284.179 75.8408Z" fill="#1C1C1C"/>
<path d="M63.8785 42.5439C63.817 35.6131 69.4738 32.2413 69.7325 32.0843C66.5288 27.3469 61.5632 26.6997 59.8183 26.6481C55.6478 26.2029 51.6024 29.1791 49.4779 29.1791C47.3111 29.1791 44.0396 26.6911 40.5136 26.7642C35.9763 26.8352 31.7316 29.4995 29.4036 33.6369C24.5992 42.073 28.1824 54.4701 32.7854 61.2891C35.088 64.6308 37.7785 68.3575 41.3002 68.2263C44.7456 68.0844 46.0326 66.0006 50.1903 66.0006C54.3099 66.0006 55.5185 68.2263 59.1101 68.1424C62.8078 68.0844 65.1358 64.7878 67.3578 61.4181C70.0187 57.5925 71.0873 53.8207 71.1297 53.6272C71.0449 53.597 63.9506 50.8488 63.8785 42.5439V42.5439ZM57.0938 22.1623C58.9469 19.8119 60.2148 16.6142 59.8628 13.3693C57.1807 13.4897 53.8265 15.2509 51.895 17.5497C50.1861 19.5754 48.6595 22.8956 49.0539 26.018C52.0667 26.2459 55.1601 24.4761 57.0938 22.1623V22.1623Z" fill="#F5F5F5"/>
<path d="M276.049 0.000183105H133.56L189.37 85.993H276.049C278.706 85.9908 281.254 84.9201 283.133 83.0158C285.013 81.1115 286.071 78.529 286.076 75.8345V10.163C286.072 7.46796 285.014 4.88467 283.134 2.97956C281.254 1.07446 278.707 0.00302577 276.049 0.000183105V0.000183105Z" fill="url(#paint0_linear_1758_1454)"/>
<path d="M113.783 67.7468H108.968L106.33 59.3408H97.1622L94.6497 67.7468H89.9619L99.0471 39.1291H104.657L113.783 67.7468V67.7468ZM105.535 55.8141L103.15 48.3414C102.897 47.578 102.422 45.7803 101.727 42.9504H101.642C101.362 44.1675 100.915 45.9652 100.302 48.3414L97.9573 55.8141H105.535ZM137.101 57.1753C137.101 60.6848 136.162 63.4588 134.281 65.4953C132.598 67.3081 130.505 68.2134 128.009 68.2134C125.315 68.2134 123.377 67.2393 122.2 65.2867V76.114H117.68V53.8938C117.68 51.6896 117.622 49.4296 117.512 47.1114H121.488L121.74 50.3822H121.825C123.332 47.9178 125.62 46.6856 128.69 46.6856C131.09 46.6856 133.094 47.6469 134.697 49.5715C136.297 51.5004 137.101 54.0336 137.101 57.1753ZM132.496 57.3431C132.496 55.3346 132.051 53.6788 131.156 52.3735C130.178 51.0166 128.866 50.337 127.221 50.337C126.105 50.337 125.092 50.7155 124.187 51.4617C123.279 52.2143 122.686 53.1971 122.408 54.4142C122.284 54.8694 122.213 55.3379 122.198 55.8098V59.2526C122.198 60.7515 122.652 62.0181 123.559 63.0546C124.467 64.0868 125.645 64.605 127.096 64.605C128.798 64.605 130.123 63.9362 131.071 62.6094C132.021 61.2783 132.496 59.5236 132.496 57.3431V57.3431ZM160.502 57.1753C160.502 60.6848 159.563 63.4588 157.682 65.4953C155.996 67.3081 153.906 68.2134 151.408 68.2134C148.713 68.2134 146.776 67.2393 145.599 65.2867V76.114H141.079V53.8938C141.079 51.6896 141.021 49.4296 140.911 47.1114H144.886L145.139 50.3822H145.224C146.729 47.9178 149.017 46.6856 152.089 46.6856C154.487 46.6856 156.49 47.6469 158.098 49.5715C159.696 51.5004 160.502 54.0336 160.502 57.1753V57.1753ZM155.895 57.3431C155.895 55.3346 155.447 53.6788 154.553 52.3735C153.575 51.0166 152.267 50.337 150.622 50.337C149.506 50.337 148.493 50.7155 147.583 51.4617C146.676 52.2143 146.084 53.1971 145.807 54.4142C145.669 54.9819 145.595 55.4443 145.595 55.8098V59.2526C145.595 60.7515 146.05 62.0181 146.954 63.0546C147.861 64.0846 149.04 64.605 150.494 64.605C152.199 64.605 153.524 63.9362 154.47 62.6094C155.42 61.2783 155.895 59.5236 155.895 57.3431V57.3431ZM186.666 59.7193C186.666 62.1557 185.826 64.1362 184.157 65.6652C182.321 67.3339 179.758 68.1704 176.471 68.1704C173.435 68.1704 171.001 67.5769 169.165 66.3877L170.21 62.5664C172.193 63.7578 174.37 64.3513 176.741 64.3513C178.445 64.3513 179.771 63.9599 180.716 63.1836C181.664 62.4051 182.143 61.3643 182.143 60.0655C182.143 58.9021 181.747 57.928 180.968 57.1345C180.186 56.3431 178.893 55.6055 177.076 54.9282C172.136 53.0594 169.663 50.3263 169.663 46.7308C169.663 44.3825 170.537 42.4601 172.28 40.9569C174.023 39.4559 176.334 38.7054 179.209 38.7054C181.776 38.7054 183.916 39.1592 185.614 40.0645L184.48 43.8019C182.881 42.9246 181.077 42.4859 179.058 42.4859C177.464 42.4859 176.213 42.8837 175.318 43.675C174.565 44.3825 174.184 45.2449 174.184 46.2684C174.184 47.3974 174.618 48.335 175.483 49.0704C176.234 49.7478 177.604 50.4854 179.584 51.2768C182.014 52.2702 183.799 53.4272 184.942 54.7561C186.093 56.0851 186.666 57.743 186.666 59.7193ZM201.649 50.5521H196.667V60.5708C196.667 63.1191 197.544 64.39 199.304 64.39C200.112 64.39 200.782 64.3212 201.312 64.1771L201.437 67.6586C200.547 67.9962 199.374 68.1661 197.922 68.1661C196.137 68.1661 194.741 67.6134 193.734 66.5081C192.732 65.4028 192.227 63.5513 192.227 60.945V50.5435H189.259V47.1028H192.227V43.3245L196.667 41.9655V47.1028H201.649V50.5521V50.5521ZM224.085 57.2592C224.085 60.4311 223.191 63.0352 221.405 65.0717C219.538 67.1683 217.053 68.2134 213.955 68.2134C210.965 68.2134 208.589 67.2092 206.816 65.2028C205.044 63.1922 204.157 60.659 204.157 57.6033C204.157 54.4056 205.073 51.7864 206.899 49.75C208.729 47.7114 211.192 46.6921 214.29 46.6921C217.275 46.6921 219.673 47.6985 221.488 49.707C223.223 51.6552 224.085 54.1712 224.085 57.2592ZM219.4 57.3646C219.4 55.4744 218.997 53.853 218.189 52.496C217.241 50.8574 215.884 50.0381 214.127 50.0381C212.316 50.0381 210.927 50.8574 209.982 52.496C209.172 53.853 208.769 55.5023 208.769 57.4506C208.769 59.343 209.172 60.9687 209.982 62.3213C210.959 63.9599 212.322 64.7792 214.089 64.7792C215.817 64.7792 217.171 63.9427 218.151 62.2804C218.982 60.8913 219.4 59.2591 219.4 57.3646ZM238.785 51.1434C238.315 51.0573 237.838 51.0149 237.36 51.0166C235.77 51.0166 234.54 51.623 233.675 52.8444C232.925 53.9196 232.547 55.2787 232.547 56.9194V67.7468H228.027V53.61C228.031 51.4438 227.987 49.2778 227.896 47.1136H231.833L231.998 51.0617H232.123C232.602 49.7048 233.353 48.6102 234.383 47.7909C235.327 47.075 236.473 46.6873 237.651 46.6856C238.068 46.6856 238.446 46.7157 238.781 46.7695L238.785 51.1434V51.1434ZM259.001 56.4528C259.013 57.1498 258.957 57.8462 258.836 58.5323H245.275C245.326 60.5708 245.983 62.132 247.243 63.2072C248.385 64.1663 249.863 64.648 251.678 64.648C253.686 64.648 255.518 64.3255 257.165 63.6739L257.873 66.8544C255.948 67.7059 253.675 68.1295 251.053 68.1295C247.898 68.1295 245.421 67.1877 243.619 65.3082C241.821 63.4266 240.92 60.8977 240.92 57.7301C240.92 54.6207 241.758 52.0294 243.435 49.9629C245.19 47.7565 247.563 46.6534 250.548 46.6534C253.48 46.6534 255.7 47.7565 257.208 49.9629C258.401 51.7111 259.001 53.8788 259.001 56.4528V56.4528ZM254.691 55.2636C254.723 53.9024 254.426 52.7304 253.813 51.7391C253.031 50.4618 251.827 49.8252 250.213 49.8252C248.735 49.8252 247.531 50.4467 246.615 51.6939C245.862 52.6853 245.415 53.8766 245.277 55.2593L254.691 55.2636Z" fill="#F5F5F5"/>
<path d="M95.8567 29.0112C94.5995 29.0112 93.5118 28.9489 92.6064 28.8435V15.0078C93.8727 14.8094 95.1522 14.7116 96.4335 14.7153C101.617 14.7153 104.005 17.3022 104.005 21.5192C104.005 26.3834 101.185 29.0112 95.8567 29.0112ZM96.6158 16.4894C95.9161 16.4894 95.3203 16.5324 94.8263 16.6356V27.1533C95.0935 27.1963 95.6066 27.2156 96.3274 27.2156C99.724 27.2156 101.658 25.2545 101.658 21.5816C101.658 18.3065 99.9085 16.4894 96.6158 16.4894V16.4894ZM111.445 29.1166C108.523 29.1166 106.63 26.9038 106.63 23.8997C106.63 20.7687 108.563 18.5366 111.61 18.5366C114.489 18.5366 116.425 20.644 116.425 23.7341C116.425 26.9038 114.43 29.1166 111.445 29.1166ZM111.529 20.1838C109.924 20.1838 108.896 21.7063 108.896 23.8352C108.896 25.9232 109.946 27.4457 111.508 27.4457C113.071 27.4457 114.12 25.8179 114.12 23.7922C114.12 21.7278 113.092 20.1838 111.529 20.1838ZM133.086 18.7452L129.958 28.8865H127.921L126.625 24.4825C126.303 23.4052 126.035 22.3121 125.822 21.2074H125.78C125.616 22.3127 125.307 23.4202 124.978 24.4825L123.6 28.8865H121.541L118.598 18.7452H120.882L122.014 23.5664C122.281 24.7147 122.506 25.7985 122.692 26.8221H122.735C122.898 25.9684 123.165 24.9018 123.558 23.5879L124.978 18.7473H126.789L128.148 23.4847C128.476 24.633 128.744 25.7598 128.951 26.8243H129.011C129.155 25.7813 129.382 24.6738 129.689 23.4847L130.904 18.7473L133.086 18.7452V18.7452ZM144.599 28.8865H142.377V23.0632C142.377 21.2697 141.698 20.3709 140.36 20.3709C139.044 20.3709 138.138 21.5192 138.138 22.8546V28.8865H135.916V21.6439C135.916 20.7472 135.895 19.786 135.834 18.743H137.788L137.892 20.3085H137.954C138.552 19.2247 139.765 18.5366 141.124 18.5366C143.223 18.5366 144.601 20.1644 144.601 22.8137L144.599 28.8865V28.8865ZM150.726 28.8865H148.502V14.0917H150.726V28.8865ZM158.828 29.1166C155.908 29.1166 154.012 26.9038 154.012 23.8997C154.012 20.7687 155.946 18.5366 158.991 18.5366C161.872 18.5366 163.806 20.644 163.806 23.7341C163.808 26.9038 161.811 29.1166 158.828 29.1166ZM158.91 20.1838C157.305 20.1838 156.277 21.7063 156.277 23.8352C156.277 25.9232 157.329 27.4457 158.887 27.4457C160.452 27.4457 161.499 25.8179 161.499 23.7922C161.501 21.7278 160.475 20.1838 158.91 20.1838V20.1838ZM172.567 28.8865L172.405 27.7188H172.346C171.668 28.6586 170.677 29.1166 169.422 29.1166C167.631 29.1166 166.359 27.8436 166.359 26.1318C166.359 23.6288 168.498 22.3342 172.202 22.3342V22.1471C172.202 20.8117 171.504 20.1429 170.126 20.1429C169.14 20.1429 168.275 20.3945 167.514 20.8956L167.062 19.4139C167.987 18.829 169.14 18.5366 170.495 18.5366C173.107 18.5366 174.426 19.9343 174.426 22.732V26.4673C174.426 27.4909 174.471 28.2844 174.57 28.8887L172.567 28.8865V28.8865ZM172.261 23.8352C169.793 23.8352 168.555 24.4416 168.555 25.8802C168.555 26.9447 169.193 27.4651 170.08 27.4651C171.21 27.4651 172.261 26.5899 172.261 25.4007V23.8352V23.8352ZM185.216 28.8865L185.112 27.2586H185.05C184.412 28.4887 183.339 29.1166 181.84 29.1166C179.43 29.1166 177.645 26.9662 177.645 23.9406C177.645 20.7687 179.495 18.5344 182.023 18.5344C183.361 18.5344 184.308 18.9925 184.843 19.9128H184.887V14.0917H187.111V26.1533C187.111 27.1339 187.135 28.0521 187.194 28.8865H185.216ZM184.887 22.9191C184.887 21.4998 183.961 20.2892 182.547 20.2892C180.899 20.2892 179.892 21.7708 179.892 23.8567C179.892 25.9017 180.937 27.3017 182.502 27.3017C183.899 27.3017 184.887 26.0695 184.887 24.6093V22.9191ZM201.213 29.1166C198.293 29.1166 196.4 26.9038 196.4 23.8997C196.4 20.7687 198.334 18.5366 201.378 18.5366C204.26 18.5366 206.193 20.644 206.193 23.7341C206.196 26.9038 204.2 29.1166 201.213 29.1166ZM201.296 20.1838C199.693 20.1838 198.664 21.7063 198.664 23.8352C198.664 25.9232 199.714 27.4457 201.274 27.4457C202.839 27.4457 203.887 25.8179 203.887 23.7922C203.891 21.7278 202.863 20.1838 201.296 20.1838ZM218.143 28.8865H215.919V23.0632C215.919 21.2697 215.24 20.3709 213.903 20.3709C212.586 20.3709 211.683 21.5192 211.683 22.8546V28.8865H209.459V21.6439C209.459 20.7472 209.437 19.786 209.376 18.743H211.331L211.435 20.3085H211.496C212.092 19.2247 213.307 18.5344 214.664 18.5344C216.763 18.5344 218.143 20.1623 218.143 22.8116V28.8865ZM233.093 20.4354H230.648V25.3598C230.648 26.6135 231.076 27.2393 231.941 27.2393C232.334 27.2393 232.662 27.1963 232.927 27.1339L232.989 28.8456C232.558 29.0134 231.982 29.0972 231.265 29.0972C229.514 29.0972 228.466 28.1167 228.466 25.5491V20.4354H227.008V18.7452H228.466V16.8872L230.648 16.2184V18.743H233.093V20.4354V20.4354ZM244.856 28.8865H242.636V23.1062C242.636 21.2913 241.96 20.373 240.62 20.373C239.468 20.373 238.395 21.1665 238.395 22.7729V28.8865H236.176V14.0917H238.395V20.1838H238.44C239.14 19.0785 240.153 18.5344 241.446 18.5344C243.562 18.5344 244.856 20.2031 244.856 22.8546V28.8865V28.8865ZM256.907 24.3577H250.239C250.281 26.2781 251.534 27.3619 253.39 27.3619C254.376 27.3619 255.283 27.1941 256.084 26.8823L256.43 28.4478C255.484 28.865 254.371 29.0736 253.076 29.0736C249.949 29.0736 248.098 27.0694 248.098 23.9621C248.098 20.8526 249.993 18.5151 252.826 18.5151C255.381 18.5151 256.983 20.4354 256.983 23.3363C256.998 23.6786 256.972 24.0215 256.907 24.3577V24.3577ZM254.87 22.7514C254.87 21.1859 254.091 20.0806 252.671 20.0806C251.395 20.0806 250.385 21.2074 250.241 22.7514H254.87V22.7514Z" fill="#F5F5F5"/>
</g>
<defs>
<linearGradient id="paint0_linear_1758_1454" x1="209.815" y1="86.2213" x2="209.815" y2="-223.91" gradientUnits="userSpaceOnUse">
<stop stop-color="#1A1A1A" stop-opacity="0.1"/>
<stop offset="0.123" stop-color="#212121" stop-opacity="0.151"/>
<stop offset="0.308" stop-color="#353535" stop-opacity="0.227"/>
<stop offset="0.532" stop-color="#575757" stop-opacity="0.318"/>
<stop offset="0.783" stop-color="#858585" stop-opacity="0.421"/>
<stop offset="1" stop-color="#B3B3B3" stop-opacity="0.51"/>
</linearGradient>
<clipPath id="clip0_1758_1454">
<rect width="286" height="86" fill="white"/>
</clipPath>
</defs>
</svg>
