<svg width="36" height="36" viewBox="0 0 36 36" fill="none" xmlns="http://www.w3.org/2000/svg">
<path d="M23.1426 17.1897L22.1534 17.3364L23.1426 17.1897ZM18.8097 12.8569L18.663 13.846L18.8097 12.8569ZM11.5711 6.14258H24.4283V4.14258H11.5711V6.14258ZM24.4283 6.14258C27.4264 6.14258 29.8569 8.57303 29.8569 11.5711H31.8569C31.8569 7.46846 28.531 4.14258 24.4283 4.14258V6.14258ZM29.8569 11.5711V24.4283H31.8569V11.5711H29.8569ZM29.8569 24.4283C29.8569 27.4264 27.4264 29.8569 24.4283 29.8569V31.8569C28.531 31.8569 31.8569 28.531 31.8569 24.4283H29.8569ZM24.4283 29.8569H11.5711V31.8569H24.4283V29.8569ZM11.5711 29.8569C8.57303 29.8569 6.14258 27.4264 6.14258 24.4283H4.14258C4.14258 28.531 7.46846 31.8569 11.5711 31.8569V29.8569ZM6.14258 24.4283V11.5711H4.14258V24.4283H6.14258ZM6.14258 11.5711C6.14258 8.57303 8.57303 6.14258 11.5711 6.14258V4.14258C7.46846 4.14258 4.14258 7.46846 4.14258 11.5711H6.14258ZM22.1534 17.3364C22.2812 18.1984 22.134 19.0787 21.7326 19.8522L23.5079 20.7733C24.103 19.6264 24.3213 18.3211 24.1318 17.043L22.1534 17.3364ZM21.7326 19.8522C21.3313 20.6256 20.6963 21.2529 19.9179 21.6446L20.8171 23.4311C21.9712 22.8502 22.9128 21.9202 23.5079 20.7733L21.7326 19.8522ZM19.9179 21.6446C19.1396 22.0364 18.2575 22.1728 17.3972 22.0343L17.0794 24.0089C18.3551 24.2142 19.663 24.012 20.8171 23.4311L19.9179 21.6446ZM17.3972 22.0343C16.5368 21.8959 15.7421 21.4897 15.1259 20.8735L13.7117 22.2878C14.6253 23.2014 15.8038 23.8037 17.0794 24.0089L17.3972 22.0343ZM15.1259 20.8735C14.5097 20.2574 14.1035 19.4626 13.9651 18.6023L11.9905 18.92C12.1958 20.1957 12.7981 21.3741 13.7117 22.2878L15.1259 20.8735ZM13.9651 18.6023C13.8267 17.7419 13.963 16.8599 14.3548 16.0815L12.5683 15.1823C11.9874 16.3364 11.7852 17.6444 11.9905 18.92L13.9651 18.6023ZM14.3548 16.0815C14.7466 15.3031 15.3738 14.6681 16.1473 14.2668L15.2261 12.4916C14.0793 13.0866 13.1492 14.0282 12.5683 15.1823L14.3548 16.0815ZM16.1473 14.2668C16.9207 13.8655 17.8011 13.7182 18.663 13.846L18.9564 11.8677C17.6783 11.6782 16.373 11.8965 15.2261 12.4916L16.1473 14.2668ZM18.663 13.846C19.5423 13.9764 20.3563 14.3861 20.9848 15.0147L22.399 13.6004C21.4671 12.6685 20.2601 12.061 18.9564 11.8677L18.663 13.846ZM20.9848 15.0147C21.6133 15.6432 22.023 16.4572 22.1534 17.3364L24.1318 17.043C23.9384 15.7393 23.3309 14.5324 22.399 13.6004L20.9848 15.0147ZM25.9997 10.2854C25.9997 10.4432 25.8718 10.5711 25.714 10.5711V12.5711C26.9764 12.5711 27.9997 11.5478 27.9997 10.2854H25.9997ZM25.714 10.5711C25.5562 10.5711 25.4283 10.4432 25.4283 10.2854H23.4283C23.4283 11.5478 24.4516 12.5711 25.714 12.5711V10.5711ZM25.4283 10.2854C25.4283 10.1276 25.5562 9.99972 25.714 9.99972V7.99972C24.4516 7.99972 23.4283 9.02307 23.4283 10.2854H25.4283ZM25.714 9.99972C25.8718 9.99972 25.9997 10.1276 25.9997 10.2854H27.9997C27.9997 9.02307 26.9764 7.99972 25.714 7.99972V9.99972Z" fill="#F5F5F5"/>
</svg>
