<svg width="1237" height="488" viewBox="0 0 1237 488" fill="none" xmlns="http://www.w3.org/2000/svg">
<path d="M907.5 2.49997C904.115 10.4475 921.14 -13.7908 907.5 2.49997ZM907.5 2.49997C892.379 20.5599 863.486 47.8788 846.493 83.7269C829.561 119.446 819.505 151.224 822.251 182.002C825.107 214.018 890 413.988 1045.96 437.145C1098.83 444.996 1225.04 416.508 1233.46 333.212C1244.35 225.5 1097 187.5 1038.5 192C940.243 199.558 816.816 262.512 798.362 272.987C768.492 289.941 661.926 323.492 656 373.5C649 432.57 705.937 469.887 743.804 480.464C815 500.349 855.905 453.521 860.5 432.57C877.57 354.732 802 320.5 715.5 289C660.23 268.873 623.519 257.596 571 246.5C531.129 238.076 337.462 221.493 332.5 307.5C327.479 394.542 525.859 422.5 568 386C631.5 331 541.368 239.079 541.368 239.079C541.368 239.079 499.324 187.664 447.073 168C379.571 142.596 313.264 134.188 235.396 141.882C183.575 147.002 137.455 159.059 90.0003 180.5C48.1031 199.43 16.5282 225.85 7.18716 240.005" stroke="#733AE8" stroke-width="5" stroke-dasharray="25 30"/>
</svg>
