<svg width="1920" height="882" viewBox="0 0 1920 882" fill="none" xmlns="http://www.w3.org/2000/svg">
<path d="M2095.84 497.554C2069.95 491.825 2045.37 497.909 2022.1 502.374C1954.44 515.356 1891.62 537.402 1835.16 565.928C1753.68 607.101 1681.75 656.9 1602.87 700.42C1501.23 756.495 1410.28 810.232 1274.92 847.112C983.03 926.634 528.144 834.884 432.29 804.5C254.346 748.096 -22.7098 608.5 -91.7077 299.855C-126.598 143.784 15.7897 20.6439 191.989 4.53307C288.415 -4.28358 529.29 28 712.29 200.501C908.294 385.259 882.363 484.036 1164.79 655C1268.27 717.643 1406.79 835.5 1589.79 823C1772.79 810.5 2015.46 624.498 2064.79 585.5" stroke="#733AE8" stroke-width="5" stroke-linecap="round" stroke-dasharray="25 30"/>
</svg>
